<svg width="193" height="36" viewBox="0 0 193 36" fill="none" xmlns="http://www.w3.org/2000/svg">
<g clip-path="url(#clip0_122_594)">
<path fill-rule="evenodd" clip-rule="evenodd" d="M3.85714 0C1.72691 0 0 1.72691 0 3.85714V32.1429C0 34.2732 1.72689 36 3.85714 36H27C29.1303 36 30.8571 34.2732 30.8571 32.1429V3.85714C30.8571 1.72691 29.1303 0 27 0H3.85714ZM2.57143 3.85714C2.57143 3.14707 3.14707 2.57143 3.85714 2.57143H5.14286V33.4286H3.85714C3.14707 33.4286 2.57143 32.853 2.57143 32.1429V3.85714ZM18.7786 13.5679C19.0962 12.9327 19.8684 12.6753 20.5035 12.9929C21.1387 13.3105 21.3961 14.0827 21.0785 14.7178L17.2214 22.4321C16.9038 23.0673 16.1316 23.3247 15.4965 23.0071C14.8613 22.6895 14.6039 21.9173 14.9215 21.2822L18.7786 13.5679ZM14.0877 14.198C14.5898 14.7001 14.5898 15.5142 14.0877 16.0163L12.104 18L14.0877 19.9837C14.5898 20.4858 14.5898 21.2999 14.0877 21.802C13.5856 22.3041 12.7715 22.3041 12.2694 21.802L9.37659 18.9091C8.87451 18.4071 8.87451 17.5929 9.37659 17.0909L12.2694 14.198C12.7715 13.6959 13.5856 13.6959 14.0877 14.198ZM21.9123 16.0163C21.4102 15.5142 21.4102 14.7001 21.9123 14.198C22.4144 13.6959 23.2285 13.6959 23.7306 14.198L26.6234 17.0909C27.1255 17.5929 27.1255 18.4071 26.6234 18.9091L23.7306 21.802C23.2285 22.3041 22.4144 22.3041 21.9123 21.802C21.4102 21.2999 21.4102 20.4858 21.9123 19.9837L23.896 18L21.9123 16.0163Z" fill="#062630"/>
<path d="M7.42859 12H29.4286V24H7.42859V12Z" fill="#062630"/>
<path d="M14.6828 12.6953L11.9478 9.94775M20.4522 18.4609L17.6542 15.6628M16.061 16.3877V22.2321M18.1641 24.3367C18.1641 25.4999 17.2221 26.4419 16.059 26.4419C14.8958 26.4419 13.9538 25.4999 13.9538 24.3367C13.9538 23.1737 14.8958 22.2317 16.059 22.2317C17.2221 22.2317 18.1641 23.1737 18.1641 24.3367ZM24.0672 19.9197C24.0672 21.0829 23.1252 22.0249 21.9622 22.0249C20.799 22.0249 19.857 21.0829 19.857 19.9197C19.857 18.7567 20.799 17.8147 21.9622 17.8147C23.1252 17.8147 24.0672 18.7567 24.0672 19.9197ZM18.1641 14.2838C18.1641 15.447 17.2221 16.389 16.059 16.389C14.8958 16.389 13.9538 15.447 13.9538 14.2838C13.9538 13.1207 14.8958 12.1787 16.059 12.1787C17.2221 12.1787 18.1641 13.1207 18.1641 14.2838Z" stroke="#FF9A60" stroke-width="1.42162" stroke-linecap="round" stroke-linejoin="round"/>
<path d="M52.3851 12.5205V24.5H49.5851V12.5205H45.4415V10.3154H56.6518L56.3646 12.5205H52.3851ZM59.9206 19.8949C60.0026 20.9137 60.3035 21.6487 60.8232 22.1C61.3428 22.5513 61.9753 22.7769 62.7206 22.7769C63.2403 22.7769 63.7291 22.6949 64.1873 22.5308C64.6454 22.3667 65.0967 22.1376 65.5411 21.8436L66.6693 23.3923C66.1633 23.8162 65.5582 24.1581 64.8539 24.4179C64.1565 24.6778 63.3873 24.8077 62.5462 24.8077C61.3702 24.8077 60.3787 24.565 59.5719 24.0795C58.7719 23.594 58.1667 22.9205 57.7565 22.059C57.3462 21.1974 57.1411 20.206 57.1411 19.0846C57.1411 18.0043 57.3394 17.0299 57.736 16.1615C58.1394 15.2932 58.7206 14.606 59.4796 14.1C60.2454 13.5872 61.165 13.3308 62.2385 13.3308C63.7291 13.3308 64.912 13.8162 65.7873 14.7872C66.6625 15.7581 67.1001 17.1017 67.1001 18.8179C67.1001 19.2145 67.083 19.5735 67.0488 19.8949H59.9206ZM62.2488 15.2385C61.5924 15.2385 61.0522 15.4744 60.6283 15.9462C60.2112 16.4179 59.965 17.1564 59.8898 18.1615H64.4642C64.4505 17.2453 64.2625 16.5308 63.9001 16.0179C63.5377 15.4983 62.9873 15.2385 62.2488 15.2385ZM74.1843 22.6333C74.6629 22.6333 75.1108 22.5444 75.5278 22.3667C75.9449 22.1889 76.3518 21.9632 76.7484 21.6897L77.9791 23.4231C77.5005 23.8265 76.9227 24.1581 76.2458 24.4179C75.5689 24.6778 74.8441 24.8077 74.0714 24.8077C72.9296 24.8077 71.9518 24.5718 71.1381 24.1C70.3313 23.6282 69.7125 22.965 69.2817 22.1103C68.8509 21.2556 68.6355 20.2641 68.6355 19.1359C68.6355 18.0214 68.8543 17.0265 69.2919 16.1513C69.7364 15.2761 70.3655 14.5889 71.1791 14.0897C71.9996 13.5838 72.9774 13.3308 74.1125 13.3308C74.8919 13.3308 75.5962 13.4436 76.2253 13.6692C76.8612 13.888 77.4424 14.2162 77.9689 14.6538L76.7689 16.3154C76.3655 16.0419 75.9484 15.8299 75.5176 15.6795C75.0868 15.5291 74.6458 15.4538 74.1945 15.4538C73.3945 15.4538 72.7415 15.7444 72.2355 16.3256C71.7364 16.9 71.4868 17.8368 71.4868 19.1359C71.4868 20.4214 71.7432 21.3274 72.2561 21.8538C72.7689 22.3735 73.4116 22.6333 74.1843 22.6333ZM82.53 9.04359V14.859C82.9813 14.3462 83.4872 13.9632 84.0479 13.7103C84.6154 13.4573 85.2069 13.3308 85.8223 13.3308C86.8206 13.3308 87.5693 13.6145 88.0684 14.1821C88.5744 14.7427 88.8274 15.5325 88.8274 16.5513V24.5H86.1197V17.1564C86.1197 16.5 86.0172 16.035 85.812 15.7615C85.6137 15.488 85.2719 15.3513 84.7864 15.3513C84.3488 15.3513 83.9385 15.4983 83.5556 15.7923C83.1727 16.0795 82.8308 16.4316 82.53 16.8487V24.5H79.8223V9.31026L82.53 9.04359Z" fill="#062630"/>
<path d="M100.216 14.859C100.578 14.3872 101.006 14.0145 101.498 13.741C101.997 13.4675 102.534 13.3308 103.108 13.3308C104.524 13.3308 105.549 13.8504 106.185 14.8897C106.821 15.9222 107.139 17.3068 107.139 19.0436C107.139 20.1581 106.975 21.1496 106.647 22.0179C106.318 22.8863 105.83 23.5701 105.18 24.0692C104.537 24.5615 103.748 24.8077 102.811 24.8077C101.628 24.8077 100.701 24.3598 100.031 23.4641L99.9082 24.5H97.5082V9.3L100.216 9.01282V14.859ZM102.113 22.7872C102.804 22.7872 103.344 22.4932 103.734 21.9051C104.124 21.3171 104.318 20.3735 104.318 19.0744C104.318 17.7 104.141 16.7393 103.785 16.1923C103.43 15.6385 102.941 15.3615 102.318 15.3615C101.867 15.3615 101.467 15.4983 101.118 15.7718C100.777 16.0453 100.476 16.3838 100.216 16.7872V21.6487C100.448 22.0111 100.722 22.2915 101.036 22.4897C101.351 22.688 101.71 22.7872 102.113 22.7872ZM113.126 13.3308C114.206 13.3308 115.122 13.5667 115.874 14.0385C116.627 14.5103 117.198 15.1769 117.587 16.0385C117.984 16.8932 118.182 17.8949 118.182 19.0436C118.182 20.8077 117.741 22.2094 116.859 23.2487C115.977 24.288 114.729 24.8077 113.115 24.8077C111.502 24.8077 110.254 24.2983 109.372 23.2795C108.49 22.2538 108.049 20.8487 108.049 19.0641C108.049 17.9291 108.247 16.9308 108.644 16.0692C109.04 15.2077 109.615 14.5376 110.367 14.059C111.126 13.5735 112.045 13.3308 113.126 13.3308ZM113.126 15.3718C112.367 15.3718 111.799 15.6692 111.423 16.2641C111.054 16.859 110.869 17.7923 110.869 19.0641C110.869 20.3496 111.054 21.2897 111.423 21.8846C111.792 22.4726 112.356 22.7667 113.115 22.7667C113.874 22.7667 114.439 22.4726 114.808 21.8846C115.177 21.2897 115.362 20.3427 115.362 19.0436C115.362 17.7786 115.177 16.8521 114.808 16.2641C114.439 15.6692 113.878 15.3718 113.126 15.3718ZM124.23 13.3308C125.311 13.3308 126.227 13.5667 126.979 14.0385C127.731 14.5103 128.302 15.1769 128.692 16.0385C129.089 16.8932 129.287 17.8949 129.287 19.0436C129.287 20.8077 128.846 22.2094 127.964 23.2487C127.082 24.288 125.834 24.8077 124.22 24.8077C122.606 24.8077 121.359 24.2983 120.477 23.2795C119.595 22.2538 119.153 20.8487 119.153 19.0641C119.153 17.9291 119.352 16.9308 119.748 16.0692C120.145 15.2077 120.719 14.5376 121.471 14.059C122.23 13.5735 123.15 13.3308 124.23 13.3308ZM124.23 15.3718C123.471 15.3718 122.904 15.6692 122.528 16.2641C122.159 16.859 121.974 17.7923 121.974 19.0641C121.974 20.3496 122.159 21.2897 122.528 21.8846C122.897 22.4726 123.461 22.7667 124.22 22.7667C124.979 22.7667 125.543 22.4726 125.912 21.8846C126.282 21.2897 126.466 20.3427 126.466 19.0436C126.466 17.7786 126.282 16.8521 125.912 16.2641C125.543 15.6692 124.983 15.3718 124.23 15.3718ZM133.571 9.01282V24.5H130.863V9.3L133.571 9.01282ZM140.709 13.6385L136.679 18.4795L141.099 24.5H137.909L133.725 18.5513L137.725 13.6385H140.709Z" fill="#062630"/>
<path d="M153.975 22.6333C154.454 22.6333 154.901 22.5444 155.318 22.3667C155.736 22.1889 156.142 21.9632 156.539 21.6897L157.77 23.4231C157.291 23.8265 156.713 24.1581 156.036 24.4179C155.359 24.6778 154.635 24.8077 153.862 24.8077C152.72 24.8077 151.742 24.5718 150.929 24.1C150.122 23.6282 149.503 22.965 149.072 22.1103C148.642 21.2556 148.426 20.2641 148.426 19.1359C148.426 18.0214 148.645 17.0265 149.083 16.1513C149.527 15.2761 150.156 14.5889 150.97 14.0897C151.79 13.5838 152.768 13.3308 153.903 13.3308C154.683 13.3308 155.387 13.4436 156.016 13.6692C156.652 13.888 157.233 14.2162 157.759 14.6538L156.559 16.3154C156.156 16.0419 155.739 15.8299 155.308 15.6795C154.877 15.5291 154.436 15.4538 153.985 15.4538C153.185 15.4538 152.532 15.7444 152.026 16.3256C151.527 16.9 151.277 17.8368 151.277 19.1359C151.277 20.4214 151.534 21.3274 152.047 21.8538C152.559 22.3735 153.202 22.6333 153.975 22.6333ZM164.782 9.3V21.341C164.782 21.8128 164.922 22.1479 165.203 22.3462C165.483 22.5444 165.856 22.6436 166.321 22.6436C166.615 22.6436 166.898 22.6128 167.172 22.5513C167.445 22.4829 167.705 22.4009 167.951 22.3051L168.618 24.1513C168.276 24.3291 167.859 24.4829 167.367 24.6128C166.881 24.7427 166.317 24.8077 165.674 24.8077C164.492 24.8077 163.596 24.4692 162.987 23.7923C162.379 23.1154 162.074 22.2026 162.074 21.0538V11.2179H158.823V9.3H164.782ZM173.425 13.6385V21.1667C173.425 21.7547 173.542 22.1684 173.774 22.4077C174.006 22.647 174.345 22.7667 174.789 22.7667C175.213 22.7667 175.627 22.6402 176.03 22.3872C176.434 22.1274 176.762 21.7991 177.015 21.4026V13.6385H179.723V24.5H177.364L177.22 23.1667C176.83 23.7 176.331 24.1068 175.723 24.3872C175.114 24.6675 174.485 24.8077 173.836 24.8077C172.789 24.8077 172.006 24.5137 171.487 23.9256C170.974 23.3308 170.718 22.5205 170.718 21.4949V13.6385H173.425ZM184.53 14.859C184.892 14.3872 185.32 14.0145 185.812 13.741C186.311 13.4675 186.848 13.3308 187.422 13.3308C188.838 13.3308 189.863 13.8504 190.499 14.8897C191.135 15.9222 191.453 17.3068 191.453 19.0436C191.453 20.1581 191.289 21.1496 190.961 22.0179C190.633 22.8863 190.144 23.5701 189.494 24.0692C188.851 24.5615 188.062 24.8077 187.125 24.8077C185.942 24.8077 185.015 24.3598 184.345 23.4641L184.222 24.5H181.822V9.3L184.53 9.01282V14.859ZM186.427 22.7872C187.118 22.7872 187.658 22.4932 188.048 21.9051C188.438 21.3171 188.633 20.3735 188.633 19.0744C188.633 17.7 188.455 16.7393 188.099 16.1923C187.744 15.6385 187.255 15.3615 186.633 15.3615C186.181 15.3615 185.781 15.4983 185.433 15.7718C185.091 16.0453 184.79 16.3838 184.53 16.7872V21.6487C184.762 22.0111 185.036 22.2915 185.35 22.4897C185.665 22.688 186.024 22.7872 186.427 22.7872Z" fill="#062630"/>
</g>
<defs>
<clipPath id="clip0_122_594">
<rect width="192.857" height="36" fill="white"/>
</clipPath>
</defs>
</svg>
