<svg width="120" height="24" viewBox="0 0 120 24" fill="none" xmlns="http://www.w3.org/2000/svg">
<path opacity="0.9" d="M11.207 5.24224C11.5352 4.58599 12.4648 4.61334 12.7656 5.24224L14.5703 8.87896L18.5625 9.45318C19.2734 9.56255 19.5469 10.4376 19.0273 10.9571L16.1562 13.7735L16.8398 17.7383C16.9492 18.4493 16.1836 18.9961 15.5547 18.668L12 16.7813L8.41796 18.668C7.78906 18.9961 7.02343 18.4493 7.13281 17.7383L7.8164 13.7735L4.94531 10.9571C4.42578 10.4376 4.69921 9.56255 5.41015 9.45318L9.42968 8.87896L11.207 5.24224Z" fill="#FF9A60"/>
<path opacity="0.9" d="M35.207 5.24224C35.5352 4.58599 36.4648 4.61334 36.7656 5.24224L38.5703 8.87896L42.5625 9.45318C43.2734 9.56255 43.5469 10.4376 43.0273 10.9571L40.1562 13.7735L40.8398 17.7383C40.9492 18.4493 40.1836 18.9961 39.5547 18.668L36 16.7813L32.418 18.668C31.7891 18.9961 31.0234 18.4493 31.1328 17.7383L31.8164 13.7735L28.9453 10.9571C28.4258 10.4376 28.6992 9.56255 29.4102 9.45318L33.4297 8.87896L35.207 5.24224Z" fill="#FF9A60"/>
<path opacity="0.9" d="M59.207 5.24224C59.5352 4.58599 60.4648 4.61334 60.7656 5.24224L62.5703 8.87896L66.5625 9.45318C67.2734 9.56255 67.5469 10.4376 67.0273 10.9571L64.1562 13.7735L64.8398 17.7383C64.9492 18.4493 64.1836 18.9961 63.5547 18.668L60 16.7813L56.418 18.668C55.7891 18.9961 55.0234 18.4493 55.1328 17.7383L55.8164 13.7735L52.9453 10.9571C52.4258 10.4376 52.6992 9.56255 53.4102 9.45318L57.4297 8.87896L59.207 5.24224Z" fill="#FF9A60"/>
<path opacity="0.9" d="M83.207 5.24224C83.5352 4.58599 84.4648 4.61334 84.7656 5.24224L86.5703 8.87896L90.5625 9.45318C91.2734 9.56255 91.5469 10.4376 91.0273 10.9571L88.1562 13.7735L88.8398 17.7383C88.9492 18.4493 88.1836 18.9961 87.5547 18.668L84 16.7813L80.418 18.668C79.7891 18.9961 79.0234 18.4493 79.1328 17.7383L79.8164 13.7735L76.9453 10.9571C76.4258 10.4376 76.6992 9.56255 77.4102 9.45318L81.4297 8.87896L83.207 5.24224Z" fill="#FF9A60"/>
<path opacity="0.9" d="M107.207 5.24224C107.535 4.58599 108.465 4.61334 108.766 5.24224L110.57 8.87896L114.562 9.45318C115.273 9.56255 115.547 10.4376 115.027 10.9571L112.156 13.7735L112.84 17.7383C112.949 18.4493 112.184 18.9961 111.555 18.668L108 16.7813L104.418 18.668C103.789 18.9961 103.023 18.4493 103.133 17.7383L103.816 13.7735L100.945 10.9571C100.426 10.4376 100.699 9.56255 101.41 9.45318L105.43 8.87896L107.207 5.24224Z" fill="#FF9A60"/>
</svg>
